<svg width="16" height="20" viewBox="0 0 16 20" fill="none" xmlns="http://www.w3.org/2000/svg">
<path fill-rule="evenodd" clip-rule="evenodd" d="M7.90077 0.000612606C8.9952 -0.0129299 10.0808 0.19819 11.0903 0.620916C12.0999 1.04364 13.0121 1.66899 13.7703 2.45828C14.5286 3.24757 15.1169 4.18403 15.4988 5.20974C15.8807 6.23545 16.0482 7.32861 15.9908 8.42161C15.9155 9.83201 15.468 11.1973 14.6938 12.3786C14.658 12.4518 14.6133 12.5203 14.5608 12.5826L14.4528 12.7116C14.2748 12.9546 14.0828 13.1886 13.8798 13.4106L8.76777 19.6346C8.67396 19.7487 8.55604 19.8407 8.42247 19.9038C8.2889 19.9669 8.143 19.9996 7.99527 19.9996C7.84755 19.9996 7.70165 19.9669 7.56808 19.9038C7.43451 19.8407 7.31658 19.7487 7.22277 19.6346L1.97677 13.2666L1.97477 13.2646C1.87007 13.1393 1.76706 13.0127 1.66577 12.8846L1.53277 12.7216C1.48147 12.6598 1.43782 12.5919 1.40277 12.5196C0.583393 11.3255 0.103733 9.93129 0.015018 8.48583C-0.0736973 7.04036 0.231864 5.59794 0.89907 4.31261C1.56628 3.02728 2.57007 1.94731 3.80325 1.18803C5.03643 0.428751 6.45269 0.0186808 7.90077 0.00161265V0.000612606ZM10.9948 8.00361C11.0021 8.40212 10.9298 8.79808 10.7824 9.16837C10.6349 9.53866 10.4151 9.87585 10.1359 10.1602C9.85662 10.4446 9.5235 10.6705 9.15596 10.8248C8.78843 10.979 8.39385 11.0584 7.99527 11.0584C7.5967 11.0584 7.20212 10.979 6.83458 10.8248C6.46705 10.6705 6.13393 10.4446 5.85468 10.1602C5.57543 9.87585 5.35565 9.53866 5.20817 9.16837C5.0607 8.79808 4.9885 8.40212 4.99577 8.00361C5.01013 7.21758 5.33245 6.46859 5.89341 5.91779C6.45436 5.36698 7.20911 5.05838 7.99527 5.05838C8.78144 5.05838 9.53619 5.36698 10.0971 5.91779C10.6581 6.46859 10.9804 7.21758 10.9948 8.00361Z" fill="#FDBA30"/>
</svg>
