<svg width="100" height="100" viewBox="0 0 100 100" fill="none" xmlns="http://www.w3.org/2000/svg">
<rect width="100" height="100" rx="20" fill="#FDBA30"/>
<path d="M48.5909 18.0253V82.1157H39.2206V35.1574L38.9625 35.3896C34.8323 39.2856 30.2375 42.7171 25.333 45.6069V35.0026C27.9143 33.1965 30.3666 31.2098 32.664 29.0683C36.2263 25.7399 39.4529 22.0245 42.2408 17.9995H48.5909V18.0253Z" fill="black"/>
<path d="M75.3326 35.0285V45.6328C70.4022 42.743 65.8332 39.2857 61.7031 35.4155L61.445 35.1833V82.1416H52.0747V18.0254H58.4506C61.2385 22.0504 64.4393 25.7658 68.0274 29.0942C70.299 31.2357 72.7512 33.2224 75.3326 35.0285Z" fill="black"/>
</svg>
