<svg width="20" height="21" viewBox="0 0 20 21" fill="none" xmlns="http://www.w3.org/2000/svg">
<path fill-rule="evenodd" clip-rule="evenodd" d="M10 2C8.58968 1.99969 7.20432 2.37221 5.98435 3.07982C4.76438 3.78743 3.75316 4.80498 3.05316 6.02934C2.35317 7.25369 1.98929 8.64134 1.99839 10.0516C2.0075 11.462 2.38927 12.8448 3.10501 14.06L3.67401 14.778L2.97701 17.137L5.29701 16.489L5.67601 16.732C6.72195 17.4035 7.90997 17.8221 9.14584 17.9545C10.3817 18.0869 11.6314 17.9295 12.7959 17.4948C13.9603 17.0601 15.0075 16.3601 15.8543 15.4502C16.7011 14.5403 17.3242 13.4457 17.6742 12.253C18.0243 11.0604 18.0916 9.80261 17.8709 8.57942C17.6502 7.35623 17.1475 6.20129 16.4027 5.20621C15.6579 4.21114 14.6915 3.40329 13.5801 2.84675C12.4687 2.29022 11.243 2.0003 10 2ZM1.00084e-05 10C1.00084e-05 4.477 4.47701 0 10 0C15.523 0 20 4.477 20 10C20 15.523 15.523 20 10 20C8.23831 20.0025 6.50746 19.5377 4.98401 18.653L0.03601 20.035L1.46201 15.206L1.45601 15.199L1.42301 15.144C0.489447 13.5908 -0.00255889 11.8122 1.00084e-05 10Z" fill="#FDBA30"/>
<path d="M14.7349 11.4919C14.6969 11.4739 13.2379 10.7559 12.9789 10.6619C12.8708 10.6173 12.7558 10.592 12.6389 10.5869C12.4429 10.5869 12.2769 10.6849 12.1489 10.8779C12.0029 11.0949 11.5619 11.6099 11.4259 11.7639C11.4079 11.7839 11.3839 11.8089 11.3689 11.8089C11.3559 11.8089 11.1299 11.7159 11.0619 11.6859C9.49794 11.0059 8.31094 9.37288 8.14794 9.09688C8.12494 9.05688 8.12394 9.03988 8.12394 9.03988C8.12894 9.01888 8.18194 8.96588 8.20894 8.93888C8.28894 8.85988 8.37494 8.75688 8.45794 8.65588L8.57494 8.51587C8.69594 8.37587 8.74994 8.26587 8.81194 8.14087L8.84494 8.07487C8.89442 7.97476 8.91847 7.86399 8.91499 7.75237C8.9115 7.64075 8.88057 7.53171 8.82494 7.43488C8.79094 7.36588 8.17494 5.87988 8.10994 5.72388C7.95194 5.34688 7.74394 5.17188 7.45494 5.17188C7.42794 5.17188 7.45494 5.17188 7.34294 5.17688C7.20594 5.18188 6.45994 5.28087 6.12994 5.48787C5.77994 5.70787 5.18994 6.41187 5.18994 7.64787C5.18994 8.75987 5.89494 9.80987 6.19794 10.2089L6.23894 10.2689C7.39994 11.9639 8.84694 13.2199 10.3129 13.8059C11.7249 14.3699 12.3939 14.4359 12.7739 14.4359C12.9339 14.4359 13.0619 14.4229 13.1739 14.4119L13.2459 14.4049C13.7339 14.3619 14.8059 13.8059 15.0499 13.1289C15.2419 12.5949 15.2929 12.0119 15.1649 11.7999C15.0769 11.6559 14.9259 11.5839 14.7349 11.4919Z" fill="#FDBA30"/>
</svg>
